<?xml version="1.0" encoding="utf-8"?>
<!-- Generator: Adobe Illustrator 27.5.0, SVG Export Plug-In . SVG Version: 6.00 Build 0)  -->
<svg version="1.1" id="Camada_1" xmlns="http://www.w3.org/2000/svg" xmlns:xlink="http://www.w3.org/1999/xlink" x="0px" y="0px"
	 viewBox="0 0 1080 1080" style="enable-background:new 0 0 1080 1080;" xml:space="preserve">
<style type="text/css">
	.st0{fill:#FFFFFF;}
	.st1{enable-background:new    ;}
</style>
<path class="st0" d="M871,324.4l-66.2-121l-2.2,1.2l0.7-2.4l-141.8-38.9l-0.7,2.4l-0.1-2.5L536.5,170l0.1,2.5l-1.1-2.2l-100.7,51.1
	l1.1,2.2l-1.9-1.6l-66.1,78.5l1.9,1.6l-25.3,80.7l2.4,0.8l-2.4,0.6l25.5,110.1l2.4-0.6l-1.2,2.2l94.7,49.8l0.9-1.7h2.6l0.1,0v0h94.1
	l-26.3,77.3l4.7,1.6l27.4-80.6l-2.4-0.8l1.8-1.8l-37.3-37l48-79.1l41.5,59.1l2-1.4v2.5h74.8v-2.5l1.4,2.1l90.1-62.3L788,419l1.9,1.6
	l80.8-93.4l-1.9-1.6L871,324.4L871,324.4z M465.4,539.6l-85-44.7l99.2-13.7L465.4,539.6L465.4,539.6z M498.5,386.2l-66.9-22.9
	l44.6-32.6L498.5,386.2L498.5,386.2z M550.1,366.8l21.9,46.8L510,391L550.1,366.8L550.1,366.8z M615.3,322.3l-18.2-63.6l59.6,43.9
	l-0.9,4.9L615.3,322.3z M654.9,313.3l-10.8,61.5L617.3,327L654.9,313.3L654.9,313.3z M666.6,303.7l-4.4-3.2l10.6-60.1l66.6,36.8
	L666.6,303.7L666.6,303.7z M657.7,297.2l-59.1-43.5l69.2-13.9L657.7,297.2L657.7,297.2z M591.1,256.1l18.8,65.6l-82.4-27.9
	L591.1,256.1z M607.7,326.3l-55.4,33.4l-29-62L607.7,326.3L607.7,326.3z M660.3,311.3l5.5-2l73.8,54.3L648.4,379L660.3,311.3
	L660.3,311.3z M671.4,307.3l71.4-26l-1.9,77.1L671.4,307.3z M598.7,248.6l60.4-76.7l9,62.7L598.7,248.6z M548,362.3l-43.3,26.1l0,0
	l-24.3-60.7l38.3-28L548,362.3z M497.7,391.2L458,422.6l-26.8-54.1L497.7,391.2L497.7,391.2z M499,396.5l-17,74.3l-21.7-43.7
	L499,396.5L499,396.5z M579.2,416.2l-0.5-0.2l-24.2-51.8l58.3-35.1l29.2,52L579.2,416.2L579.2,416.2z M677.7,237.5l118.4-28.7
	l-51.4,65.7L677.7,237.5L677.7,237.5z M522.1,291.3L505.5,246l31.5-68.5l51.4,74.4L522.1,291.3L522.1,291.3z M478.4,322.9l-9.2-23
	l43.4-2.1L478.4,322.9L478.4,322.9z M474.3,325.9l-47.7,34.9l-49-56.5l86.4-4.1L474.3,325.9L474.3,325.9z M504.6,394.4l69.1,25.1
	L486.6,473L504.6,394.4z M649.2,384l88.8-15l-39.8,104.6L649.2,384L649.2,384z M745.9,362.1L745.9,362.1l2-80.8l113.5,44.1
	L745.9,362.1L745.9,362.1z M673,233.5l-9.2-64.3l128.8,35.3L673,233.5L673,233.5z M592.2,248.7l-51.1-73.9l114.2-6.2L592.2,248.7z
	 M373,485.4l-23.2-100.1l72.3-17.5L373,485.4z M426.4,370.2l27.6,55.6l-75.7,59.8L426.4,370.2z M456.2,430.3l22.8,45.9l-98,13.5
	L456.2,430.3L456.2,430.3z M527.4,499.7l-39.6-21.6l84.1-51.6L527.4,499.7z M641.6,387l-19.8,88.2L583,419.8L641.6,387z
	 M695.3,478.8h-69.1l20.1-89.6L695.3,478.8z M743.1,369.4l41.1,49.1L703,474.6L743.1,369.4L743.1,369.4z M802.1,209.2l61.1,111.7
	l-113.8-44.2L802.1,209.2L802.1,209.2z M501.4,242.9l-59.1-19.8l89-45.1L501.4,242.9z M500.8,247.9l16.4,44.7l-50,2.4l-27-67.4
	L500.8,247.9L500.8,247.9z M461.9,295.3l-86.7,4.1l59.9-71L461.9,295.3L461.9,295.3z M373.3,307.1l48.3,55.6l-71.2,17.2L373.3,307.1
	L373.3,307.1z M484.4,482l42.4,23.1l34.1,33.8h-90.3L484.4,482z M747.5,366.8l113.5-36.1L788,415.1L747.5,366.8z"/>
<path class="st0" d="M517.4,550c-7.6,0.2-27.2,6.5-38,13.5l4.3-39.5c7.7,8.8,22.1,14.9,33.5,15.2c8,0.2,16.3-1.7,24.1-7.3
	c1.3-0.9,2.6-1.9,3.8-3.3l0.8,27.9C546,556.6,532.4,549.7,517.4,550L517.4,550z"/>
<path class="st0" d="M395.1,482.7c5.1,9.5,13.7,24.1,25.5,29.9c5.1,2.5,36.8,5,41.1,4.3l-20.3,33c-3.7-12.8-14.4-21.2-25.9-27.1
	c-8-4.1-37.3-3-43.1-3L395.1,482.7L395.1,482.7z"/>
<path class="st0" d="M473.5,466.2c9-6.3,12.9-16.1,14.1-26.7c1-7.9,0.5-15.9-1.7-23.7c-0.4-1.4-0.9-2.9-1.4-4.2
	c-0.5-1.4-1.2-2.9-2-4.3l32.8,6.9c-8.9,6.7-16.6,16.7-19.5,27.3c-2.4,8.5,0.8,30,1.4,31L473.5,466.2L473.5,466.2z"/>
<path class="st0" d="M362.5,385.9c-1.6,12.4-4.1,31.1-0.3,45c3.3,12.2,25.2,42.2,28,45.1l-41.2,8c4.6-15.2,8.8-33.5,5.8-49.6
	c-3-16.7-16.6-35.4-20.7-40.8L362.5,385.9L362.5,385.9z"/>
<path class="st0" d="M389.7,321.4c-7.8,7.8-21,21.1-25.1,31.6c-3.5,9-3.3,21.2-2.3,28.5l-26.2-9.4c9.2-10.2,10.8-14.1,12.6-23.4
	c1.7-8.3-0.2-33.5-1.6-41.5L389.7,321.4L389.7,321.4z"/>
<path class="st0" d="M441.6,239c-23,8-38.5,32.5-42.6,53.2c-0.7,3.6-1.2,7.2-1.1,11.1l-31.4-25.4c13.3-2.9,25.4-10.5,35-19.5
	c8-7.6,12-14.8,18.6-34.3L441.6,239L441.6,239z"/>
<path class="st0" d="M536.1,188.9c-32.4-0.2-59.5,16.9-78.1,34.1c-3,2.9-4.9,4.2-8.8,9.8l-11.6-24.2c25.3-1,56.7-15.2,75.6-31.8
	c3.1-2.8,4.9-4.6,9.3-10.7L536.1,188.9L536.1,188.9z"/>
<path class="st0" d="M646.2,187.4c-23.2-14-61.6-18.6-86.9-8.8c-4.2,1.6-8.3,3.6-12,6.2l-1.3-24.5c25.1,13.4,61.7,6.8,86.2-5.7
	c4.2-2.2,8.2-4.5,11.9-7.5L646.2,187.4L646.2,187.4L646.2,187.4z"/>
<path class="st0" d="M780.3,217.9c-21.8-23.6-62.9-35.9-94.4-31.6c-5.4,0.8-10.5,1.8-15.8,3.8l10.8-39.4c21.2,25.5,61,38,93.4,35.3
	c5.3-0.5,12.9-2.6,18.1-4.2L780.3,217.9L780.3,217.9L780.3,217.9z"/>
<path class="st0" d="M843.5,322.4c2.4-14.6-3.6-35.9-14.8-53.6c-13.7-21.7-33.7-38.7-36.8-40.2l35.8-19
	c-2.2,20.3,1.8,36.3,11.2,54.1c6.6,12.5,35,37.2,40.2,39.3L843.5,322.4L843.5,322.4L843.5,322.4z"/>
<path class="st0" d="M780.3,405.8c13-7.2,30-15.2,41.4-27.9c6.6-7.4,18.1-27.2,21.6-53.6l32.8,26.5c-21.8,6.5-35.7,14.8-49.8,32.4
	c-4.6,5.7-10,13.5-24.1,43.2L780.3,405.8L780.3,405.8z"/>
<path class="st0" d="M698,466.2c13.5-2,27.8-8.4,40.6-16.9c10.8-7.2,30-26.7,35.9-37.7l13.3,23.9c-14.9,2.3-31,10-44.9,20
	c-9.1,6.6-17.2,14.1-23.4,21.8c-2.5,3.2-4.9,6.5-6.8,10.2L698,466.2L698,466.2L698,466.2z"/>
<path class="st0" d="M635.8,472.6c6.7,4.4,15,5.9,23.3,5.6c8.8-0.4,28.4-8.1,30.1-9.4v26.3c-1.4-0.8-21-8.4-29.1-8.3
	c-15.3,0.2-28.6,8.3-29.7,9.1L635.8,472.6L635.8,472.6z"/>
<path class="st0" d="M661.7,402.4c-15.7,13.1-34.6,36.9-25.9,70.2l-23.7-2c19.8-24.2,18.9-49.3,13-69.3c-0.8-2.7-1.7-5.2-3-7.8
	L661.7,402.4L661.7,402.4L661.7,402.4z"/>
<path class="st0" d="M566.5,428.7c-7-7.3-11.1-13-21.1-16.3c-12.3-4.1-21.2-3.5-27.6,0l6.9-33.9c8.9,12.1,13.6,19.1,23.9,23.2
	s27.1,2.5,30.8,2L566.5,428.7L566.5,428.7z"/>
<path class="st0" d="M497.6,473.3c2.2,6,5.6,12.5,10.5,15.2c3.3,1.8,9.1,2.2,15.5,0.2l-10.5,19.1c-0.8-3-1.9-6.1-3.7-8.4
	c-5-6.6-13.6-8.3-21.8-5.3C487.4,494,497.6,473.3,497.6,473.3L497.6,473.3z"/>
<path class="st0" d="M548.9,524.1c10.9-13.2,18.8-37.5,20.8-50.8c3.3-22-1.2-40.1-2.7-44l23.8,1.4c-7.2,11.3-11.5,27.3-12.4,42.5
	c-0.8,13.4,3.2,42.3,8.1,52.1L548.9,524.1z"/>
<path class="st0" d="M439.7,356.6c2.9,4,12.7,12.9,20.2,14.8c7,1.7,27.1,0,29.6-1.4l-10.6,31c-3.1-6.8-14.5-17.9-21.3-20.3
	c-8.3-2.9-24-1.2-26.5-0.8L439.7,356.6L439.7,356.6z"/>
<path class="st0" d="M529.3,308.9c-4.8,3.9-10.5,20.2-11.7,26.4c-2.1,11.5-1.3,30.1,7.1,43.3l-33.2-9.8c11-9.2,16-22.9,19.1-34
	c2.5-9,2.5-18.9-1.3-27.6c-0.3-0.8-0.7-1.5-1.2-2.3L529.3,308.9L529.3,308.9L529.3,308.9z"/>
<path class="st0" d="M607.8,259.5c-6,13.6-3.5,29.6,4,42.1c2.7,4.3,6.1,8.4,10.4,11.4l-22.9,6.5c6.3-15.5,1.5-35.6-9.8-47.7
	c-1.9-2-3.9-3.8-6.4-5.4L607.8,259.5L607.8,259.5z"/>
<path class="st0" d="M620.9,375.2c3.5-6.6,4.9-14.3,3.5-21.2c-0.8-4.5-3.1-8.3-7.3-10.4c-0.8-0.4-1.6-0.7-2.5-1
	c-0.4-0.1-1-0.3-1.5-0.4c-0.5-0.1-1.1-0.2-1.7-0.2l16.8-9.4c-2.2,4.4-2.3,10.1,0.6,14.1c3.8,5.2,9.7,8.5,16.2,10.2
	c2,0.5,4.1,0.9,6.7,1.1L620.9,375.2L620.9,375.2L620.9,375.2z"/>
<path class="st0" d="M730.7,388.5c-16.9-13.6-44-14.9-59.2,1.8c-1.2,1.3-2.4,2.8-3.4,4.2c-0.5,0.8-1.1,1.6-1.6,2.6l-5.8-34.7
	c3.9,3.5,8.7,6,13.6,7.5c15.4,4.8,31.7-1,43.1-12c2.6-2.6,4.8-5.1,6.8-8.4L730.7,388.5L730.7,388.5L730.7,388.5z"/>
<path class="st0" d="M516.8,254c-2.4,4.9-3.1,16.2,2.6,22.2c2,2.2,4.1,3.6,7,4.7l-19.6,7.5c3.2-6.7,3.1-16.3-2.6-22.3
	c-1.4-1.5-6.4-4.4-7.3-4.8L516.8,254L516.8,254z"/>
<path class="st0" d="M758,287.9c-7.5,8.5-9.3,20.4-7.7,31.3c1.1,8,3.7,16.5,7.8,23.8c0.7,1.3,1.6,2.8,2.4,4c0.9,1.3,1.9,2.7,3,4
	l-40-1c7.9-8.5,12.8-20,14.9-31.1c2-9.7,1.2-20-4-28.6c-0.7-1.1-1.3-2-2.1-3L758,287.9L758,287.9L758,287.9z"/>
<path class="st0" d="M685.3,230.6c8.2,14.5,24.6,24.8,40.2,29.7c5.6,1.6,11.5,2.8,17.5,2.5l-12,21.8c-9.5-16.1-30.5-28.5-48.8-31.2
	c-3-0.4-6-0.7-9.2-0.4L685.3,230.6L685.3,230.6L685.3,230.6z"/>
<path class="st0" d="M529.7,606.8c5-3.7,13.5-11.6,16.9-20.7c3.1-8.4,3.8-22.6-0.5-29.6l34,7.5c-14.5,8.7-21,17.6-24.2,25.8
	c-2.8,6.5-2.3,18.8,0.9,25.3l-25.9-8.7L529.7,606.8L529.7,606.8z"/>
<circle class="st0" cx="346.8" cy="384.1" r="15.8"/>
<circle class="st0" cx="372.3" cy="302.7" r="25.5"/>
<circle class="st0" cx="435.9" cy="224.2" r="15.8"/>
<circle class="st0" cx="536.6" cy="173.2" r="15.8"/>
<circle class="st0" cx="660.8" cy="166.4" r="25.5"/>
<circle class="st0" cx="802.5" cy="205.3" r="25.5"/>
<circle class="st0" cx="868.8" cy="326.3" r="25.5"/>
<circle class="st0" cx="788" cy="419.7" r="15.8"/>
<circle class="st0" cx="697.8" cy="481.9" r="15.8"/>
<circle class="st0" cx="623" cy="481.9" r="15.8"/>
<circle class="st0" cx="528.3" cy="503.7" r="15.8"/>
<circle class="st0" cx="465.7" cy="542.1" r="25.5"/>
<circle class="st0" cx="372.3" cy="494.2" r="25.5"/>
<circle class="st0" cx="426.2" cy="364.8" r="15.8"/>
<ellipse transform="matrix(0.1602 -0.9871 0.9871 0.1602 145.5896 762.3801)" class="st0" cx="520.8" cy="295.6" rx="15.8" ry="15.8"/>
<ellipse transform="matrix(0.1602 -0.9871 0.9871 0.1602 35.5476 825.3412)" class="st0" cx="502.8" cy="391.8" rx="25.5" ry="25.5"/>
<circle class="st0" cx="482.8" cy="478.9" r="15.8"/>
<circle class="st0" cx="579.4" cy="419.7" r="15.8"/>
<circle class="st0" cx="645.3" cy="382.8" r="25.5"/>
<circle class="st0" cx="567" cy="542.1" r="25.5"/>
<circle class="st0" cx="613.7" cy="326.3" r="15.8"/>
<circle class="st0" cx="745.4" cy="278.4" r="15.8"/>
<circle class="st0" cx="743.2" cy="366.2" r="25.5"/>
<circle class="st0" cx="593" cy="254.1" r="15.8"/>
<circle class="st0" cx="670.9" cy="237.3" r="15.8"/>
<ellipse transform="matrix(0.1891 -0.982 0.982 0.1891 165.5743 693.7036)" class="st0" cx="502.8" cy="246.6" rx="15.8" ry="15.8"/>
<g class="st1">
	<path class="st0" d="M228,688.9l-26.3,0.6c-2.6,0.1-5.1-0.4-7.5-1.6c-2.4-1.2-4.5-2.9-6.2-5c0-0.1,0-0.1-0.1-0.1
		c-1.7-2.1-3.8-3.7-6.6-4.9c-2.7-1.2-5.9-1.8-9.4-1.8c-4.7,0-8.7,0.9-11.9,2.8c-3.3,1.9-4.9,4.4-4.8,7.6c-0.1,2.5,0.9,4.6,3,6.4
		c2.1,1.8,5.7,3.3,11.1,4.4l24.4,4.6c12.6,2.5,22,6.5,28.2,12.1c6.2,5.6,9.3,13,9.4,22.3c-0.1,8.6-2.6,16.2-7.7,22.6
		c-5.1,6.4-12,11.4-20.8,15c-8.8,3.5-18.9,5.3-30.2,5.3c-18.1,0-32.3-3.7-42.7-11.2c-10.4-7.4-16.4-17.4-17.9-30l12.5-0.3
		c12.4-0.3,23.7,3,34.1,9.8l0.1,0.1c3.7,2.4,8.4,3.6,14.1,3.6c5.2,0,9.4-1,12.6-2.9c3.2-1.9,4.9-4.5,4.9-7.7
		c-0.1-2.8-1.3-5.1-3.8-6.8c-2.5-1.7-6.3-3.1-11.6-4.1l-22.1-4.2c-12.7-2.3-22.2-6.6-28.4-12.8c-6.2-6.2-9.3-14.2-9.2-23.9
		c-0.1-8.5,2.2-15.7,6.8-21.7s11-10.6,19.5-13.8c8.4-3.2,18.3-4.8,29.7-4.8c17.2,0,30.7,3.6,40.6,10.8
		C221.5,666.5,227,676.3,228,688.9z"/>
	<path class="st0" d="M337.5,655.9c2.1,1.2,4,2.5,5.7,3.9c1.7,1.4,3.4,3.6,5.2,6.4c1.8,2.8,3.4,6.1,4.6,9.9c1.2,3.8,2.2,8.7,3,14.7
		c0.8,6,1.2,12.9,1.2,20.5c0,7.2-0.6,14-1.8,20.5c-1.2,6.5-2.7,12-4.6,16.5c-1.9,4.6-4,8.4-6.2,11.5c-2.2,3.1-4.5,5.3-6.9,6.7
		c-0.6,0.3-1.7,1-3.4,2c-1.7,1-3,1.8-3.9,2.4c-0.9,0.5-2.1,1.1-3.6,1.8c-1.5,0.6-2.9,1.1-4.2,1.4c-10,2.1-20.6,3-31.9,2.7
		c-11.3,0-21.8-3.4-31.5-10.3c-3.9-2.6-7-6.4-9.2-11.3c-2.2-4.9-3.4-10-3.6-15.3c-0.2-5.3,0.5-10.5,2.2-15.8
		c1.7-5.2,4.2-9.5,7.6-12.7c4.4-3,9.4-5.4,15.2-7c2.9-0.8,5.9-1.5,9-2c3.2-0.5,6.4-0.9,9.4-1.2c7.3-0.7,13.2-1.4,17.7-2.2
		c4.5-0.7,7.7-1.8,9.8-3.3c2-1.4,3-3.4,3-6v-0.5c0-4.3-1.5-7.6-4.5-9.9c-0.3-0.3-0.6-0.5-0.8-0.6c-2.9-1.9-6.6-2.9-11.1-2.9
		c-5.4,0-9.8,1.2-13,3.5c-0.3,0.2-0.6,0.4-0.7,0.6c-0.7,0.6-1.4,1.2-2.1,1.9c-1.9,2.2-4.2,4-6.9,5.2c-2.7,1.2-5.5,1.7-8.4,1.6h-0.1
		l-25.6-0.9c1.5-8,4.7-14.9,9.7-20.7c5-5.9,11.6-10.4,19.7-13.7c8.1-3.3,17.5-5,28.1-5C317.2,648.3,328.2,650.8,337.5,655.9z
		 M296.9,752.3c4.4,0,8.4-0.9,11.9-2.6c3.1-1.5,5.7-3.6,7.7-6.2c0.3-0.3,0.5-0.7,0.8-1.1c2.1-3.1,3.2-6.8,3.2-11v-7.5
		c0-1.1-0.4-1.9-1.3-2.6c-0.9-0.6-1.8-0.8-2.8-0.5h-0.1c-1.5,0.5-3.3,1-5.4,1.4c-2.1,0.5-4.1,0.9-6,1.2c-2.7,0.4-4.7,0.7-6,0.9
		c-1,0.2-2.1,0.4-3.3,0.6c-2.5,0.6-4.6,1.3-6.6,2.2c-2.3,1.1-4.1,2.4-5.4,4.1c-0.3,0.3-0.5,0.6-0.7,0.9c-1.4,2-2.2,4.5-2.2,7.3
		c0,4.2,1.5,7.4,4.6,9.7C288.3,751.3,292.2,752.3,296.9,752.3z"/>
	<path class="st0" d="M494.5,680.8c4.6,9.3,6.9,21.2,6.9,35.6c0,13.9-2.2,25.5-6.6,34.8c-4.4,9.4-10.4,16.4-17.8,21.1
		c-6.9,4.3-14.5,6.6-22.9,7c-0.7,0-1.3,0-1.8,0c-6.2,0-11.6-1-16.1-3c-4.5-2-8.3-4.6-11.4-7.9c0-0.1,0-0.1-0.1-0.2
		c-0.9-1-2-1.5-3.2-1.5c-1.2,0-2.3,0.4-3.2,1.2c-0.9,0.9-1.4,1.9-1.4,3.3v52.5H378V716c0-10.2,1.5-19.3,4.5-27.2
		c3-8,7.1-14.7,12.5-20c5.4-5.4,11.7-9.5,19.1-12.2c1.1-0.4,1.9-0.7,2.6-0.9c0.2-0.1,0.4-0.1,0.6-0.2c6.5-2,13.5-3,21.1-3
		c9.6,0,17.3,0.7,23.1,2c5.9,1.3,10.9,3.3,15,5.8C484,664.6,490,671.5,494.5,680.8z M463.4,732c1.7-4.9,2.6-10.7,2.6-17.2
		s-0.9-12.3-2.6-17.1c-1.7-4.8-4.2-8.6-7.6-11.2c-3.3-2.7-7.4-4-12.2-4c-4.8,0-8.9,1.3-12.2,3.8c-3.3,2.6-5.9,6.4-7.7,11.2
		c-0.6,1.8-1.2,3.8-1.6,5.8c-0.7,3.4-1,7.2-1,11.4c0,4.2,0.3,8,1,11.4c0.4,2.1,1,4,1.6,5.8c1.8,4.9,4.4,8.7,7.8,11.4
		c3.4,2.7,7.4,4,12.2,4c4.8,0,8.9-1.3,12.2-4C459.1,740.7,461.6,736.9,463.4,732z"/>
	<path class="st0" d="M552.5,633.5c-3.6,3.4-7.9,5.1-13,5.1c-5.1,0-9.4-1.7-13-5c-3.6-3.4-5.4-7.4-5.4-12.1s1.8-8.8,5.4-12.2
		c3.6-3.4,8-5.1,13-5.1c5.1,0,9.5,1.7,13,5c3.6,3.4,5.4,7.4,5.4,12.1S556.1,630.1,552.5,633.5z M522.4,777.2V654.4h34v88.8
		c0,6.1-1.5,11.8-4.5,17c-3,5.2-7.1,9.4-12.4,12.4C534.3,775.7,528.5,777.2,522.4,777.2z"/>
	<path class="st0" d="M699.5,723.1H615v1c0,5.2,1,9.7,3,13.6c2,3.9,4.9,6.9,8.6,9c3.7,2.1,8.2,3.2,13.4,3.2c3.6,0,6.8-0.5,9.7-1.5
		c2.9-1,5.4-2.4,7.6-4.4c5-4.6,10.6-6.9,16.6-6.7l25.1,0.7c-1.5,8.3-4.9,15.5-10.1,21.7c-5.2,6.1-12,10.9-20.4,14.2
		c-8.4,3.4-18.1,5.1-29.2,5.1c-13.2,0-24.7-2.6-34.3-7.9c-9.6-5.3-17-12.8-22.1-22.5c-5.1-9.7-7.7-21.4-7.7-34.9
		c0-13.1,2.6-24.5,7.7-34.3c5.1-9.8,12.4-17.5,21.9-22.9c9.4-5.4,20.5-8.2,33.3-8.2c9,0,17.3,1.4,24.7,4.2c7.5,2.8,13.9,7,19.4,12.4
		c5.4,5.5,9.7,12.3,12.7,20.3c3,8,4.5,17.2,4.5,27.7V723.1z M626.8,680.5c-3.5,2-6.4,4.7-8.5,8.2c-1.9,3.2-3,6.9-3.2,11h46.8
		c-0.1-4.3-1.1-8.1-3-11.4c-2-3.4-4.7-6-8.1-7.9c-3.4-1.9-7.4-2.8-11.8-2.8C634.4,677.5,630.4,678.5,626.8,680.5z"/>
	<path class="st0" d="M816.1,666.3c12.4,7.8,18.7,23.6,18.7,47.3v63.6h-34.7c-0.1-0.1-0.1-0.6-0.1-1.5v-69.2
		c0-8.1-2.4-14.1-7.3-17.9c-4.9-3.7-10.3-5.6-16.3-5.6c-6,0-11.4,1.9-16.1,5.6c-4.7,3.8-7,9.7-7,17.8v70.8h-35.2v-63.6
		c0-23.1,5.9-38.5,17.8-46.3c11.9-7.8,25.1-12,39.5-12.7C790.2,654.5,803.7,658.5,816.1,666.3z"/>
	<path class="st0" d="M964.2,688.9l-26.3,0.6c-2.6,0.1-5.1-0.4-7.5-1.6c-2.4-1.2-4.5-2.9-6.2-5c0-0.1,0-0.1-0.1-0.1
		c-1.7-2.1-3.8-3.7-6.6-4.9s-5.9-1.8-9.4-1.8c-4.7,0-8.7,0.9-11.9,2.8c-3.3,1.9-4.9,4.4-4.8,7.6c-0.1,2.5,0.9,4.6,3,6.4
		c2.1,1.8,5.7,3.3,11.1,4.4l24.4,4.6c12.6,2.5,22,6.5,28.2,12.1c6.2,5.6,9.3,13,9.4,22.3c-0.1,8.6-2.6,16.2-7.7,22.6
		c-5.1,6.4-12,11.4-20.8,15c-8.8,3.5-18.9,5.3-30.2,5.3c-18.1,0-32.3-3.7-42.7-11.2c-10.4-7.4-16.4-17.4-17.8-30l12.5-0.3
		c12.4-0.3,23.7,3,34.1,9.8l0.1,0.1c3.7,2.4,8.4,3.6,14.1,3.6c5.2,0,9.4-1,12.6-2.9c3.2-1.9,4.9-4.5,4.9-7.7
		c-0.1-2.8-1.3-5.1-3.8-6.8c-2.5-1.7-6.3-3.1-11.6-4.1l-22.1-4.2c-12.7-2.3-22.2-6.6-28.4-12.8c-6.2-6.2-9.3-14.2-9.2-23.9
		c-0.1-8.5,2.2-15.7,6.8-21.7c4.6-6,11-10.6,19.5-13.8c8.4-3.2,18.3-4.8,29.7-4.8c17.2,0,30.7,3.6,40.6,10.8
		C957.7,666.5,963.1,676.3,964.2,688.9z"/>
</g>
<g class="st1">
	<path class="st0" d="M721.4,897.3c-7.7,0-14.3-1.6-19.8-4.9c-5.5-3.3-9.8-7.8-12.7-13.6c-3-5.8-4.4-12.6-4.4-20.2
		c0-7.7,1.5-14.4,4.5-20.2s7.2-10.4,12.8-13.6s12.1-4.9,19.6-4.9c6.6,0,12.3,1.2,17.2,3.6c4.9,2.4,8.8,5.7,11.7,10
		c2.9,4.3,4.5,9.4,4.7,15.1h-2.9c-3.9,0-7.7-0.8-11.3-2.4c-3.6-1.6-6.9-3.8-9.8-6.6c0,0,0-0.1,0-0.1c0,0,0,0,0,0
		c-2.3-2.3-5.4-3.4-9.3-3.4c-3.2,0-6,0.9-8.4,2.6s-4.3,4.3-5.6,7.6c-1.4,3.3-2,7.4-2,12.1c0,4.8,0.7,8.9,2,12.2
		c1.3,3.4,3.2,5.9,5.6,7.7c2.4,1.8,5.2,2.7,8.4,2.7c2.4,0,4.5-0.5,6.4-1.5s3.5-2.4,4.7-4.3v0l0,0c1.3-2.1,3.1-3.7,5.2-4.9
		s4.4-1.8,6.8-1.8h10c-0.3,5.8-1.9,10.8-4.7,15.1c-2.8,4.3-6.6,7.7-11.5,10.2C733.9,896.1,728.1,897.3,721.4,897.3z"/>
	<path class="st0" d="M789.5,820.4v75.4h-23.6v-99c3.2,0,6.3,0.6,9.2,1.9c2.9,1.3,5.4,2.9,7.5,5c2.1,2.1,3.8,4.6,5,7.5
		C788.9,814.2,789.5,817.2,789.5,820.4z"/>
	<path class="st0" d="M815,889.5c-7.5-4.7-11.2-14.2-11.2-28.5v-38.3h20.9c0,0.4,0,0.7,0,0.9v41.7c0,4.9,1.5,8.5,4.4,10.8
		c2.9,2.2,6.2,3.4,9.8,3.4c3.6,0,6.9-1.1,9.7-3.4c2.8-2.2,4.2-5.8,4.2-10.8v-42.6H874V861c0,13.9-3.6,23.2-10.8,27.9
		c-7.1,4.7-15.1,7.2-23.8,7.7C830.6,896.6,822.4,894.2,815,889.5z"/>
	<path class="st0" d="M956.8,879.7c-2.7,5.6-6.3,9.7-10.8,12.4c-2.5,1.5-5.5,2.7-9,3.5c-3.5,0.8-8.2,1.2-13.9,1.2
		c-4.6,0-8.8-0.6-12.7-1.8c-0.2-0.1-0.3-0.1-0.4-0.1c-0.4-0.1-0.9-0.3-1.6-0.5c-4.4-1.6-8.2-4.1-11.5-7.4c-3.2-3.2-5.7-7.2-7.5-12.1
		c-1.8-4.8-2.7-10.2-2.7-16.4v-64.9h23.5v31.6c0,0.8,0.3,1.5,0.8,2c0.5,0.5,1.2,0.8,1.9,0.7c0.7,0,1.4-0.3,1.9-0.9c0,0,0-0.1,0-0.1
		c1.9-2,4.1-3.6,6.8-4.8c2.7-1.2,5.9-1.8,9.7-1.8c0.3,0,0.6,0,1.1,0c5,0.2,9.6,1.6,13.8,4.2c4.5,2.8,8,7.1,10.7,12.7
		c2.6,5.6,4,12.6,4,21C961,867,959.6,874.2,956.8,879.7z M938.1,848.9c-1.1-3-2.6-5.2-4.6-6.8c-2-1.6-4.5-2.4-7.4-2.4
		c-2.9,0-5.3,0.8-7.3,2.4c-2,1.6-3.6,3.9-4.7,6.8c-0.4,1.1-0.7,2.3-1,3.5c-0.4,2.1-0.6,4.4-0.6,6.9c0,2.5,0.2,4.8,0.6,6.9
		c0.3,1.3,0.6,2.4,1,3.5c1.1,2.9,2.6,5.2,4.6,6.7c2,1.5,4.5,2.3,7.4,2.3c2.9,0,5.4-0.8,7.4-2.4c2-1.6,3.6-3.9,4.6-6.8
		c1-2.9,1.5-6.3,1.5-10.3S939.1,851.8,938.1,848.9z"/>
</g>
<g class="st1">
	<path class="st0" d="M115,628.2v-25.9h8.8c2,0,3.7,0.4,5,1.1s2.3,1.7,2.9,3c0.6,1.2,0.9,2.6,0.9,4.1s-0.3,2.9-0.9,4.2
		c-0.6,1.2-1.6,2.2-2.9,3c-1.3,0.7-2.9,1.1-5,1.1h-6.3V616h6.2c1.4,0,2.5-0.2,3.4-0.7c0.8-0.5,1.5-1.1,1.8-2
		c0.4-0.8,0.6-1.8,0.6-2.8s-0.2-2-0.6-2.8c-0.4-0.8-1-1.5-1.9-1.9c-0.9-0.5-2-0.7-3.4-0.7h-5.5v23.1H115z"/>
</g>
<g class="st1">
	<path class="st0" d="M144.6,628.6c-1.8,0-3.3-0.4-4.6-1.3s-2.3-2-3.1-3.5s-1.1-3.3-1.1-5.3c0-2,0.4-3.8,1.1-5.3s1.8-2.7,3.1-3.5
		s2.9-1.3,4.6-1.3c1.8,0,3.3,0.4,4.6,1.3s2.3,2,3.1,3.5s1.1,3.3,1.1,5.3c0,2-0.4,3.8-1.1,5.3s-1.8,2.7-3.1,3.5
		S146.3,628.6,144.6,628.6z M144.6,625.9c1.3,0,2.4-0.3,3.3-1c0.9-0.7,1.5-1.6,1.9-2.7c0.4-1.1,0.6-2.3,0.6-3.6s-0.2-2.5-0.6-3.6
		c-0.4-1.1-1-2-1.9-2.7s-2-1-3.3-1c-1.3,0-2.4,0.3-3.3,1c-0.9,0.7-1.5,1.6-1.9,2.7c-0.4,1.1-0.6,2.3-0.6,3.6s0.2,2.5,0.6,3.6
		c0.4,1.1,1.1,2,1.9,2.7C142.1,625.6,143.2,625.9,144.6,625.9z"/>
	<path class="st0" d="M161,628.2l-5.9-19.4h3.1l4.2,14.9h0.2l4.1-14.9h3.2l4.1,14.8h0.2l4.2-14.8h3.1l-5.9,19.4h-2.9l-4.2-14.9h-0.3
		l-4.2,14.9H161z"/>
</g>
<g class="st1">
	<path class="st0" d="M193.2,628.6c-1.9,0-3.5-0.4-4.8-1.2c-1.4-0.8-2.4-2-3.1-3.5s-1.1-3.2-1.1-5.2s0.4-3.7,1.1-5.3
		s1.8-2.7,3.1-3.6c1.3-0.9,2.8-1.3,4.6-1.3c1,0,2,0.2,3,0.5c1,0.3,1.9,0.9,2.7,1.6s1.5,1.8,1.9,3c0.5,1.2,0.7,2.8,0.7,4.6v1.3h-15
		v-2.6h11.9c0-1.1-0.2-2.1-0.7-2.9c-0.4-0.9-1-1.5-1.8-2c-0.8-0.5-1.7-0.7-2.8-0.7c-1.2,0-2.2,0.3-3.1,0.9s-1.5,1.3-2,2.3
		c-0.5,0.9-0.7,1.9-0.7,3v1.7c0,1.5,0.3,2.7,0.8,3.7c0.5,1,1.2,1.8,2.1,2.3c0.9,0.5,2,0.8,3.2,0.8c0.8,0,1.5-0.1,2.1-0.3
		c0.6-0.2,1.2-0.6,1.7-1s0.8-1,1.1-1.7l2.9,0.8c-0.3,1-0.8,1.8-1.5,2.6c-0.7,0.7-1.6,1.3-2.7,1.7
		C195.7,628.4,194.5,628.6,193.2,628.6z"/>
</g>
<g class="st1">
	<path class="st0" d="M205.8,628.2v-19.4h2.9v2.9h0.2c0.4-1,1-1.7,1.9-2.3c0.9-0.6,2-0.9,3.1-0.9c0.2,0,0.5,0,0.8,0
		c0.3,0,0.6,0,0.7,0v3c-0.1,0-0.3-0.1-0.7-0.1s-0.7-0.1-1.1-0.1c-0.9,0-1.8,0.2-2.5,0.6c-0.7,0.4-1.3,0.9-1.7,1.6
		c-0.4,0.7-0.6,1.5-0.6,2.3v12.3H205.8z"/>
</g>
<g class="st1">
	<path class="st0" d="M226,628.6c-1.9,0-3.5-0.4-4.8-1.2c-1.4-0.8-2.4-2-3.1-3.5s-1.1-3.2-1.1-5.2s0.4-3.7,1.1-5.3s1.8-2.7,3.1-3.6
		c1.3-0.9,2.8-1.3,4.6-1.3c1,0,2,0.2,3,0.5c1,0.3,1.9,0.9,2.7,1.6s1.5,1.8,1.9,3c0.5,1.2,0.7,2.8,0.7,4.6v1.3h-15v-2.6H231
		c0-1.1-0.2-2.1-0.7-2.9c-0.4-0.9-1-1.5-1.8-2c-0.8-0.5-1.7-0.7-2.8-0.7c-1.2,0-2.2,0.3-3.1,0.9s-1.5,1.3-2,2.3
		c-0.5,0.9-0.7,1.9-0.7,3v1.7c0,1.5,0.3,2.7,0.8,3.7c0.5,1,1.2,1.8,2.1,2.3c0.9,0.5,2,0.8,3.2,0.8c0.8,0,1.5-0.1,2.1-0.3
		c0.6-0.2,1.2-0.6,1.7-1s0.8-1,1.1-1.7l2.9,0.8c-0.3,1-0.8,1.8-1.5,2.6c-0.7,0.7-1.6,1.3-2.7,1.7C228.5,628.4,227.3,628.6,226,628.6
		z"/>
	<path class="st0" d="M245.9,628.6c-1.6,0-3-0.4-4.3-1.2s-2.2-2-2.9-3.5c-0.7-1.5-1.1-3.3-1.1-5.3c0-2,0.4-3.8,1.1-5.3
		c0.7-1.5,1.7-2.7,2.9-3.5c1.2-0.8,2.7-1.2,4.3-1.2c1.3,0,2.3,0.2,3,0.6c0.7,0.4,1.3,0.9,1.7,1.4c0.4,0.5,0.7,1,0.9,1.3h0.3v-9.6h3
		v25.9H252v-3h-0.4c-0.2,0.4-0.5,0.8-0.9,1.3c-0.4,0.5-1,1-1.7,1.4C248.2,628.4,247.2,628.6,245.9,628.6z M246.3,625.9
		c1.2,0,2.2-0.3,3-0.9c0.8-0.6,1.5-1.5,1.9-2.6c0.4-1.1,0.6-2.4,0.6-3.9c0-1.5-0.2-2.7-0.6-3.8c-0.4-1.1-1-1.9-1.9-2.6
		c-0.8-0.6-1.8-0.9-3.1-0.9c-1.3,0-2.3,0.3-3.2,1c-0.8,0.6-1.5,1.5-1.9,2.6c-0.4,1.1-0.6,2.3-0.6,3.7c0,1.4,0.2,2.6,0.6,3.8
		s1.1,2,1.9,2.7C244,625.6,245.1,625.9,246.3,625.9z"/>
</g>
<g class="st1">
	<path class="st0" d="M270.8,628.2v-25.9h3v9.6h0.3c0.2-0.3,0.5-0.8,0.9-1.3c0.4-0.5,1-1,1.7-1.4c0.7-0.4,1.7-0.6,3-0.6
		c1.6,0,3.1,0.4,4.3,1.2s2.2,2,2.9,3.5c0.7,1.5,1,3.3,1,5.3c0,2.1-0.4,3.8-1,5.3c-0.7,1.5-1.7,2.7-2.9,3.5s-2.7,1.2-4.3,1.2
		c-1.2,0-2.2-0.2-3-0.6c-0.8-0.4-1.3-0.9-1.7-1.4c-0.4-0.5-0.7-1-0.9-1.3h-0.4v3H270.8z M273.7,618.5c0,1.5,0.2,2.8,0.6,3.9
		c0.4,1.1,1.1,2,1.9,2.6c0.8,0.6,1.8,0.9,3,0.9c1.2,0,2.3-0.3,3.1-1c0.8-0.7,1.5-1.6,1.9-2.7s0.6-2.4,0.6-3.8c0-1.4-0.2-2.6-0.6-3.7
		s-1-2-1.9-2.6c-0.8-0.6-1.9-1-3.2-1c-1.2,0-2.2,0.3-3.1,0.9c-0.8,0.6-1.5,1.5-1.9,2.6C273.9,615.8,273.7,617.1,273.7,618.5z"/>
</g>
<g class="st1">
	<path class="st0" d="M293.5,635.5c-0.5,0-1,0-1.4-0.1s-0.7-0.2-0.8-0.2l0.8-2.6c1.1,0.3,2,0.3,2.7,0c0.7-0.3,1.4-1.2,1.9-2.6
		l0.6-1.5l-7.2-19.5h3.2l5.4,15.5h0.2l5.4-15.5l3.3,0l-8.3,22.2c-0.4,1-0.8,1.8-1.4,2.5c-0.5,0.7-1.2,1.1-1.9,1.5
		C295.2,635.3,294.4,635.5,293.5,635.5z"/>
	<path class="st0" d="M338.8,602.3h3.1v17.2c0,1.8-0.4,3.3-1.2,4.7c-0.8,1.4-2,2.5-3.5,3.3c-1.5,0.8-3.3,1.2-5.3,1.2
		s-3.8-0.4-5.3-1.2c-1.5-0.8-2.7-1.9-3.5-3.3c-0.8-1.4-1.2-3-1.2-4.7v-17.2h3.1v16.9c0,1.3,0.3,2.4,0.8,3.4s1.4,1.8,2.4,2.3
		c1,0.6,2.3,0.8,3.7,0.8c1.4,0,2.7-0.3,3.7-0.8c1-0.6,1.8-1.3,2.4-2.3c0.6-1,0.8-2.1,0.8-3.4V602.3z"/>
	<path class="st0" d="M350.8,616.5v11.7h-3v-19.4h2.9v3h0.3c0.5-1,1.1-1.8,2.1-2.4c0.9-0.6,2.1-0.9,3.6-0.9c1.3,0,2.5,0.3,3.5,0.8
		c1,0.5,1.8,1.3,2.3,2.4c0.5,1.1,0.8,2.5,0.8,4.1v12.3h-3v-12.1c0-1.5-0.4-2.7-1.2-3.6c-0.8-0.9-1.9-1.3-3.3-1.3
		c-1,0-1.8,0.2-2.5,0.6c-0.7,0.4-1.3,1-1.8,1.8C351,614.4,350.8,615.4,350.8,616.5z"/>
	<path class="st0" d="M370.2,605.6c-0.6,0-1.1-0.2-1.5-0.6c-0.4-0.4-0.6-0.9-0.6-1.4s0.2-1,0.6-1.4c0.4-0.4,0.9-0.6,1.5-0.6
		c0.6,0,1.1,0.2,1.5,0.6s0.6,0.9,0.6,1.4s-0.2,1-0.6,1.4S370.8,605.6,370.2,605.6z M368.7,628.2v-19.4h3v19.4H368.7z"/>
	<path class="st0" d="M390.9,613.1l-2.7,0.8c-0.2-0.4-0.4-0.9-0.7-1.3s-0.8-0.8-1.3-1.1s-1.3-0.4-2.1-0.4c-1.2,0-2.2,0.3-3,0.8
		s-1.2,1.2-1.2,2.1c0,0.7,0.3,1.3,0.8,1.8c0.5,0.4,1.4,0.8,2.5,1.1l2.9,0.7c1.7,0.4,3,1.1,3.9,1.9c0.9,0.9,1.3,2,1.3,3.3
		c0,1.1-0.3,2.1-1,3s-1.5,1.6-2.7,2.1c-1.1,0.5-2.5,0.8-4,0.8c-2,0-3.6-0.4-4.9-1.3c-1.3-0.9-2.1-2.1-2.5-3.8l2.8-0.7
		c0.3,1,0.8,1.8,1.5,2.4c0.8,0.5,1.7,0.8,3,0.8c1.4,0,2.5-0.3,3.3-0.9s1.2-1.3,1.2-2.1c0-0.7-0.2-1.2-0.7-1.7
		c-0.5-0.5-1.2-0.8-2.2-1l-3.2-0.8c-1.8-0.4-3.1-1.1-3.9-2s-1.2-2-1.2-3.3c0-1.1,0.3-2.1,0.9-2.9c0.6-0.8,1.5-1.5,2.5-2
		c1.1-0.5,2.3-0.7,3.7-0.7c1.9,0,3.4,0.4,4.5,1.3C389.6,610.6,390.4,611.8,390.9,613.1z"/>
</g>
</svg>
