<?xml version="1.0" encoding="UTF-8"?><svg id="Camada_1" xmlns="http://www.w3.org/2000/svg" viewBox="0 0 1080 1080"><defs><style>.cls-1{letter-spacing:-.02em;}.cls-2{font-size:225.41px;}.cls-2,.cls-3{font-family:VilaSapiens, VilaSapiens;}.cls-2,.cls-4,.cls-5{fill:#fff;}.cls-6,.cls-3{fill:#2f358b;}.cls-7{fill:#efe421;}.cls-8{fill:#ea5b27;}.cls-9{letter-spacing:-.02em;}.cls-3{font-size:135.76px;}.cls-10{letter-spacing:0em;}.cls-11{fill:#47ad4d;}.cls-12{fill:#c0282e;}.cls-13{fill:#e62579;}.cls-14{fill:#9d1460;}.cls-15{fill:#fff;}.cls-5{font-family:Inter-Light, Inter;font-size:35.62px;font-variation-settings:'wght' 300, 'slnt' 0;font-weight:300;}.cls-16{fill:#036838;}.cls-17{fill:#2baae2;}.cls-18{letter-spacing:-.02em;}</style></defs><path class="cls-15" d="m870.98,324.41l-66.25-121-2.19,1.2.66-2.41-141.78-38.9-.66,2.41-.14-2.5-124.13,6.74.14,2.5-1.13-2.23-100.71,51.09,1.13,2.23-1.91-1.61-66.15,78.47,1.85,1.56-25.32,80.67,2.39.75-2.44.56,25.54,110.13,2.44-.56-1.16,2.21,94.72,49.8.87-1.66h2.57l.15.04v-.04h94.06l-26.27,77.31,4.73,1.61,27.39-80.62-2.37-.8,1.76-1.77-37.26-36.97,48.03-79.09,41.45,59.14,2.05-1.43v2.5h74.81v-2.5l1.42,2.06,90.11-62.28-1.42-2.06,1.89,1.64,80.83-93.35-1.89-1.64,2.19-1.2Zm-7.68-3.61l-113.84-44.24,52.7-67.41,61.14,111.65Zm-335.84,178.88l-39.65-21.58,84.09-51.6-44.44,73.18Zm-62.1,39.93l-84.99-44.69,99.16-13.72-14.17,58.4Zm39.4-151.28l-.05-.02-24.34-60.69,38.34-28.05,29.31,62.68-43.26,26.08Zm45.39-21.52l21.89,46.81-62.05-22.6,40.17-24.21Zm-51.68,19.37l-66.89-22.87,44.62-32.64,22.27,55.51Zm157.41-78.59l-40.56,14.76-18.21-63.56,59.63,43.89-.86,4.91Zm-57.29-53.92l69.23-13.95-10.1,57.46-59.12-43.51Zm-7.46,2.42l18.81,65.63-82.38-27.87,63.57-37.76Zm-67.79,41.61l84.4,28.56-55.43,33.41-28.98-61.97Zm131.53,15.58l-10.81,61.47-26.79-47.78,37.6-13.68Zm5.42-1.97l5.46-1.99,73.79,54.31-91.16,15.4,11.91-67.72Zm11.1-4.04l71.43-25.99-1.93,77.14-69.5-51.15Zm-4.84-3.56l-4.37-3.21,10.56-60.06,66.63,36.77-72.83,26.5Zm-67.85-55.16l60.38-76.7,9,62.72-69.38,13.98Zm-76.58,42.7l-16.63-45.23,31.54-68.53,51.37,74.39-66.29,39.37Zm-21.26-43.35l16.43,44.7-50.05,2.39-27.02-67.36,60.63,20.27Zm11.76,49.93l-34.2,25.02-9.2-22.95,43.41-2.07Zm-38.37,28.06l-47.67,34.87-49.03-56.49,86.37-4.12,10.33,25.74Zm23.39,65.31l-39.67,31.37-26.83-54.1,66.5,22.74Zm1.33,5.32l-17.05,74.33-21.68-43.7,38.73-30.63Zm-19.97,79.71l-97.97,13.55,75.2-59.47,22.77,45.91Zm25.58-81.83l69.06,25.15-87.09,53.44,18.03-78.59Zm74.56,21.83l-.5-.18-24.23-51.82,58.28-35.13,29.17,52.03-62.73,35.1Zm158.77-47.26l-39.83,104.55-48.93-89.55,88.76-15Zm7.93-6.89l-.06-.05,2.02-80.74,113.45,44.09-115.4,36.69Zm-68.14-124.6l118.39-28.72-51.37,65.71-67.02-36.98Zm-4.75-3.99l-9.23-64.34,128.78,35.34-119.55,29Zm-80.72,15.18l-51.06-73.94,114.15-6.2-63.09,80.14Zm-90.8-5.82l-59.1-19.76,88.97-45.13-29.87,64.89Zm-39.5,52.41l-86.71,4.14,59.88-71.04,26.84,66.9Zm-88.62,11.8l48.29,55.64-71.17,17.24,22.88-72.88Zm80.63,118.7l-75.66,59.83,48.09-115.41,27.57,55.58Zm187.66-38.74l-19.8,88.18-38.81-55.38,58.61-32.8Zm4.65,2.1l48.98,89.65h-69.11l20.13-89.65Zm96.86-19.75l41.12,49.12-81.23,56.14,40.1-105.26Zm4.38-2.56l113.55-36.1-73.1,84.42-40.45-48.32Zm-397.77,18.44l72.26-17.51-49.03,117.66-23.23-100.15Zm134.72,96.75l42.37,23.06,34.09,33.83h-90.26l13.8-56.89Z"/><path class="cls-4" d="m517.44,550.03c-7.59.15-27.22,6.55-37.95,13.53,0,0,4.33-39.47,4.33-39.47,7.66,8.82,22.15,14.93,33.51,15.23,7.95.21,16.27-1.71,24.06-7.35,1.28-.92,2.56-1.93,3.84-3.26l.77,27.87s-13.6-6.85-28.55-6.55Z"/><path class="cls-4" d="m395.11,482.69c5.12,9.45,13.72,24.06,25.46,29.86,5.13,2.53,36.77,5.05,41.07,4.29l-20.29,33.01c-3.68-12.8-14.41-21.21-25.92-27.11-8-4.1-37.31-2.98-43.13-2.98,0,0,22.8-37.06,22.8-37.06Z"/><path class="cls-4" d="m473.47,466.2c9-6.27,12.93-16.15,14.06-26.74.96-7.93.5-15.9-1.7-23.7-.39-1.37-.89-2.87-1.41-4.21-.55-1.42-1.16-2.86-1.99-4.34l32.84,6.86c-8.94,6.67-16.57,16.73-19.51,27.28-2.35,8.46.76,29.98,1.42,31.05,0,0-23.72-6.19-23.72-6.19Z"/><path class="cls-4" d="m362.45,385.85c-1.61,12.44-4.1,31.11-.33,44.97,3.3,12.16,25.2,42.21,28.05,45.15,0,0-41.25,7.96-41.25,7.96,4.58-15.17,8.75-33.49,5.81-49.63-3.05-16.74-16.61-35.36-20.66-40.83l28.39-7.62Z"/><path class="cls-4" d="m389.72,321.4c-7.75,7.81-21,21.13-25.06,31.65-3.49,9.05-3.27,21.24-2.32,28.49l-26.23-9.37c9.25-10.21,10.79-14.11,12.65-23.42,1.66-8.28-.17-33.54-1.6-41.49l42.56,14.14Z"/><path class="cls-4" d="m441.58,238.97c-22.98,7.98-38.53,32.46-42.63,53.21-.68,3.64-1.16,7.23-1.11,11.08,0,0-31.36-25.42-31.36-25.42,13.26-2.88,25.38-10.5,35.01-19.53,8.04-7.59,12.03-14.84,18.63-34.3l21.46,14.96Z"/><path class="cls-4" d="m536.1,188.93c-32.38-.19-59.49,16.85-78.11,34.07-3.02,2.86-4.89,4.2-8.8,9.78,0,0-11.64-24.23-11.64-24.23,25.33-1,56.66-15.17,75.61-31.8,3.08-2.75,4.92-4.64,9.34-10.68,0,0,13.59,22.86,13.59,22.86Z"/><path class="cls-4" d="m646.17,187.38c-23.24-13.99-61.59-18.58-86.94-8.75-4.16,1.6-8.35,3.57-12.01,6.23,0,0-1.33-24.5-1.33-24.5,25.09,13.42,61.65,6.75,86.16-5.7,4.16-2.18,8.15-4.51,11.94-7.53,0,0,2.19,40.24,2.19,40.24h0Z"/><path class="cls-4" d="m780.3,217.91c-21.83-23.6-62.88-35.94-94.42-31.58-5.36.77-10.54,1.81-15.78,3.84,0,0,10.82-39.44,10.82-39.44,21.17,25.53,61.01,38.02,93.39,35.35,5.26-.5,12.94-2.55,18.12-4.25,0,0-12.12,36.07-12.12,36.07h0Z"/><path class="cls-4" d="m843.54,322.41c2.43-14.63-3.61-35.91-14.77-53.59-13.71-21.72-33.66-38.73-36.81-40.25,0,0,35.76-19.01,35.76-19.01-2.17,20.33,1.8,36.33,11.23,54.11,6.61,12.48,34.95,37.22,40.15,39.27,0,0-35.55,19.47-35.55,19.47h0Z"/><path class="cls-4" d="m780.35,405.83c13-7.22,29.98-15.17,41.36-27.91,6.62-7.41,18.08-27.19,21.61-53.65,0,0,32.83,26.5,32.83,26.5-21.76,6.52-35.67,14.78-49.81,32.44-4.59,5.74-10.05,13.47-24.11,43.17l-21.89-20.56Z"/><path class="cls-4" d="m697.95,466.16c13.53-1.98,27.83-8.39,40.6-16.93,10.79-7.22,30.05-26.69,35.86-37.67,0,0,13.35,23.87,13.35,23.87-14.93,2.34-31.05,10.03-44.9,20.02-9.09,6.56-17.21,14.1-23.38,21.78-2.53,3.22-4.9,6.49-6.83,10.21,0,0-14.7-21.27-14.7-21.27h0Z"/><path class="cls-4" d="m635.77,472.57c6.71,4.38,14.95,5.92,23.3,5.56,8.76-.38,28.42-8.15,30.08-9.36,0,0,0,26.34,0,26.34-1.44-.83-20.98-8.35-29.1-8.26-15.3.17-28.61,8.3-29.74,9.1l5.45-23.39Z"/><path class="cls-4" d="m661.7,402.38c-15.67,13.12-34.58,36.88-25.93,70.19l-23.67-2c19.82-24.18,18.89-49.27,12.98-69.28-.82-2.67-1.7-5.18-2.96-7.79,0,0,39.58,8.89,39.58,8.89h0Z"/><path class="cls-4" d="m566.48,428.74c-7.05-7.27-11.13-13.02-21.11-16.32-12.29-4.06-21.22-3.45-27.6.05,0,0,6.93-33.87,6.93-33.87,8.89,12.08,13.64,19.14,23.88,23.21s27.12,2.53,30.81,2.05c0,0-12.91,24.87-12.91,24.87Z"/><path class="cls-4" d="m497.55,473.26c2.24,6,5.59,12.53,10.54,15.19,3.29,1.77,9.09,2.16,15.47.21,0,0-10.47,19.1-10.47,19.1-.77-2.97-1.87-6.06-3.7-8.44-5.04-6.59-13.62-8.26-21.84-5.34-.17.06,10.01-20.73,10.01-20.73Z"/><path class="cls-4" d="m548.86,524.09c10.93-13.22,18.77-37.52,20.76-50.83,3.3-22.02-1.15-40.15-2.71-43.95,0,0,23.75,1.41,23.75,1.41-7.22,11.32-11.53,27.28-12.39,42.54-.76,13.35,3.21,42.25,8.08,52.13,0,0-37.49-1.3-37.49-1.3Z"/><path class="cls-4" d="m439.69,356.58c2.94,4.02,12.67,12.94,20.18,14.77,7.01,1.7,27.07-.04,29.64-1.38,0,0-10.56,30.95-10.56,30.95-3.08-6.78-14.46-17.91-21.31-20.3-8.3-2.89-23.99-1.23-26.5-.78,0,0,8.55-23.25,8.55-23.25Z"/><path class="cls-4" d="m529.34,308.93c-4.75,3.87-10.55,20.18-11.71,26.39-2.14,11.47-1.33,30.15,7.07,43.29,0,0-33.2-9.75-33.2-9.75,10.97-9.19,16.04-22.86,19.06-33.95,2.51-9.02,2.51-18.89-1.29-27.64-.34-.77-.71-1.54-1.19-2.33l21.25,3.98h0Z"/><path class="cls-4" d="m607.81,259.53c-6.05,13.61-3.47,29.65,4.01,42.11,2.69,4.33,6.09,8.44,10.41,11.44,0,0-22.86,6.55-22.86,6.55,6.28-15.52,1.5-35.57-9.77-47.67-1.92-2.01-3.89-3.83-6.36-5.39,0,0,24.57-7.04,24.57-7.04h0Z"/><path class="cls-4" d="m620.91,375.16c3.47-6.65,4.87-14.3,3.5-21.25-.78-4.46-3.14-8.29-7.34-10.35-.79-.4-1.64-.73-2.51-1-.42-.12-1.05-.29-1.48-.37-.53-.1-1.07-.2-1.71-.25l16.82-9.43c-2.24,4.44-2.28,10.08.56,14.15,3.76,5.19,9.68,8.52,16.15,10.23,1.96.51,4.07.93,6.66,1.09l-30.63,17.18h0Z"/><path class="cls-4" d="m730.66,388.51c-16.88-13.61-44.02-14.89-59.18,1.78-1.18,1.28-2.39,2.76-3.4,4.19-.55.81-1.1,1.61-1.62,2.59l-5.84-34.74c3.91,3.46,8.67,5.97,13.57,7.54,15.42,4.77,31.65-1.03,43.1-12.02,2.61-2.61,4.78-5.12,6.79-8.43,0,0,6.57,39.08,6.57,39.08h0Z"/><path class="cls-4" d="m516.79,253.95c-2.36,4.86-3.09,16.15,2.58,22.17,2.04,2.17,4.1,3.65,7.01,4.72,0,0-19.57,7.54-19.57,7.54,3.21-6.72,3.12-16.28-2.58-22.29-1.4-1.51-6.36-4.44-7.31-4.84l19.88-7.3Z"/><path class="cls-4" d="m758.01,287.85c-7.52,8.49-9.35,20.43-7.7,31.3,1.08,8.04,3.71,16.52,7.83,23.82.71,1.31,1.61,2.76,2.44,4,.91,1.33,1.86,2.67,3.05,4.01l-40.02-1c7.91-8.51,12.78-20,14.89-31.12,1.96-9.67,1.18-20-4-28.64-.66-1.06-1.28-2.02-2.13-3.01,0,0,25.64.64,25.64.64h0Z"/><path class="cls-4" d="m685.27,230.64c8.24,14.52,24.6,24.79,40.23,29.65,5.6,1.64,11.51,2.81,17.47,2.53,0,0-12.01,21.76-12.01,21.76-9.52-16.06-30.53-28.47-48.8-31.22-3.04-.42-6.03-.69-9.19-.44,0,0,12.3-22.28,12.3-22.28h0Z"/><path class="cls-4" d="m529.66,606.82c5.05-3.66,13.51-11.59,16.87-20.66,3.11-8.39,3.75-22.6-.55-29.58,0,0,33.97,7.5,33.97,7.5-14.54,8.67-20.95,17.64-24.15,25.85-2.76,6.49-2.34,18.75.91,25.27,0,0-25.89-8.7-25.89-8.7l-1.17.32Z"/><circle class="cls-12" cx="346.76" cy="384.08" r="15.79"/><circle class="cls-8" cx="372.31" cy="302.71" r="25.54"/><circle class="cls-17" cx="435.91" cy="224.24" r="15.79"/><circle class="cls-11" cx="536.62" cy="173.15" r="15.79"/><circle class="cls-14" cx="660.75" cy="166.41" r="25.54"/><circle class="cls-8" cx="802.53" cy="205.31" r="25.54"/><circle class="cls-13" cx="868.78" cy="326.31" r="25.54"/><circle class="cls-14" cx="787.95" cy="419.66" r="15.79"/><circle class="cls-12" cx="697.85" cy="481.94" r="15.79"/><circle class="cls-13" cx="623.04" cy="481.94" r="15.79"/><circle class="cls-6" cx="528.35" cy="503.71" r="15.79"/><circle class="cls-8" cx="465.69" cy="542.07" r="25.54"/><circle class="cls-17" cx="372.31" cy="494.21" r="25.54"/><circle class="cls-6" cx="426.22" cy="364.83" r="15.79"/><circle class="cls-12" cx="520.83" cy="295.63" r="15.79"/><circle class="cls-14" cx="502.81" cy="391.78" r="25.54"/><circle class="cls-16" cx="482.81" cy="478.93" r="15.79"/><circle class="cls-7" cx="579.4" cy="419.66" r="15.79"/><circle class="cls-17" cx="645.31" cy="382.78" r="25.54"/><circle class="cls-11" cx="567.01" cy="542.07" r="25.54"/><circle class="cls-16" cx="613.65" cy="326.31" r="15.79"/><circle class="cls-11" cx="745.42" cy="278.36" r="15.79"/><circle class="cls-6" cx="743.22" cy="366.23" r="25.54"/><circle class="cls-7" cx="592.97" cy="254.14" r="15.79"/><circle class="cls-6" cx="670.9" cy="237.25" r="15.79"/><circle class="cls-13" cx="502.81" cy="246.6" r="15.79"/><text class="cls-2" transform="translate(108.6 777.24)"><tspan x="0" y="0">sapiens</tspan></text><text class="cls-3" transform="translate(680 895.75)"><tspan x="0" y="0">club</tspan></text><text class="cls-5" transform="translate(111.88 628.22)"><tspan class="cls-10" x="0" y="0">P</tspan><tspan class="cls-9" x="22.07" y="0">ow</tspan><tspan x="70.47" y="0">e</tspan><tspan class="cls-1" x="91.15" y="0">r</tspan><tspan x="103.24" y="0">ed </tspan><tspan class="cls-18" x="155.78" y="0">b</tspan><tspan x="176.92" y="0">y Unis</tspan></text></svg>